<svg xmlns="http://www.w3.org/2000/svg" xmlns:xlink="http://www.w3.org/1999/xlink" data-name="Layer 1" viewBox="0 0 400 400"><defs><linearGradient id="a" x1="-1090.86" x2="-1095.76" y1="510.14" y2="354.3" gradientTransform="translate(1299.69)" gradientUnits="userSpaceOnUse"><stop offset="0" stop-color="#ff4428" class="stopColorff4428 svgShape"/><stop offset="1" stop-color="#ff7e3b" class="stopColorff7e3b svgShape"/></linearGradient><linearGradient id="d" x1="-1120.48" x2="-1125.38" y1="511.07" y2="355.23" xlink:href="#a"/><clipPath id="b"><rect width="115.88" height="185.82" x="62.37" y="144.4" fill="none"/></clipPath><clipPath id="c"><rect width="236.21" height="236.21" x="62.37" y="93.98" fill="none"/></clipPath></defs><g opacity=".5" fill="#000000" class="color000 svgShape"><polygon fill="#411815" points="193.9 207.8 193.82 204 188.06 204 188.14 207.8 193.9 207.8" class="color411815 svgShape"/><polygon fill="#411815" points="193.63 173.99 193.55 170.2 187.79 170.2 187.87 173.99 193.63 173.99" class="color411815 svgShape"/><polygon fill="#411815" points="193.36 140.19 193.28 136.39 187.52 136.39 187.6 140.19 193.36 140.19" class="color411815 svgShape"/><polygon fill="#411815" points="193.09 106.38 193.01 102.59 187.25 102.59 187.33 106.38 193.09 106.38" class="color411815 svgShape"/><polygon fill="#411815" points="109.77 207.8 109.69 204 80.41 204 80.49 207.8 109.77 207.8" class="color411815 svgShape"/><polygon fill="#411815" points="130.53 196.39 130.45 192.6 80.02 192.6 80.1 196.39 130.53 196.39" class="color411815 svgShape"/><polygon fill="#411815" points="122.06 184.98 121.98 181.19 79.48 181.19 79.56 184.98 122.06 184.98" class="color411815 svgShape"/><polygon fill="#411815" points="117.48 207.8 117.4 204 111.64 204 111.72 207.8 117.48 207.8" class="color411815 svgShape"/><polygon fill="#f8bc27" points="109.5 173.99 109.42 170.2 80.14 170.2 80.22 173.99 109.5 173.99" class="colorf8bc27 svgShape"/><polygon fill="#411815" points="130.26 162.58 130.18 158.79 79.75 158.79 79.83 162.58 130.26 162.58" class="color411815 svgShape"/><polygon fill="#411815" points="121.79 151.18 121.72 147.39 79.22 147.39 79.3 151.18 121.79 151.18" class="color411815 svgShape"/><polygon fill="#411815" points="117.21 173.99 117.13 170.2 111.38 170.2 111.45 173.99 117.21 173.99" class="color411815 svgShape"/><polygon fill="#65b69b" points="109.23 140.19 109.15 136.39 79.87 136.39 79.95 140.19 109.23 140.19" class="color65b69b svgShape"/><polygon fill="#411815" points="129.99 128.78 129.91 124.99 79.48 124.99 79.56 128.78 129.99 128.78" class="color411815 svgShape"/><polygon fill="#411815" points="121.52 117.37 121.44 113.58 78.94 113.58 79.02 117.37 121.52 117.37" class="color411815 svgShape"/><polygon fill="#65b69b" points="116.94 140.19 116.86 136.39 111.1 136.39 111.18 140.19 116.94 140.19" class="color65b69b svgShape"/><polygon fill="#411815" points="108.96 106.38 108.88 102.59 79.6 102.59 79.68 106.38 108.96 106.38" class="color411815 svgShape"/><polygon fill="#411815" points="116.67 106.38 116.59 102.59 110.83 102.59 110.91 106.38 116.67 106.38" class="color411815 svgShape"/><polygon fill="#411815" points="109.77 321.58 109.69 317.79 80.41 317.79 80.49 321.58 109.77 321.58" class="color411815 svgShape"/><polygon fill="#411815" points="130.53 310.18 130.45 306.38 80.02 306.38 80.1 310.18 130.53 310.18" class="color411815 svgShape"/><polygon fill="#411815" points="122.06 298.77 121.98 294.98 79.48 294.98 79.56 298.77 122.06 298.77" class="color411815 svgShape"/><polygon fill="#411815" points="117.48 321.58 117.4 317.79 111.64 317.79 111.72 321.58 117.48 321.58" class="color411815 svgShape"/><polygon fill="#f8bc27" points="109.5 287.77 109.42 283.99 80.14 283.99 80.22 287.77 109.5 287.77" class="colorf8bc27 svgShape"/><polygon fill="#411815" points="130.26 276.37 130.18 272.58 79.75 272.58 79.83 276.37 130.26 276.37" class="color411815 svgShape"/><polygon fill="#411815" points="121.79 264.96 121.72 261.17 79.22 261.17 79.3 264.96 121.79 264.96" class="color411815 svgShape"/><polygon fill="#411815" points="117.21 287.77 117.13 283.99 111.38 283.99 111.45 287.77 117.21 287.77" class="color411815 svgShape"/><polygon fill="#65b69b" points="109.23 253.97 109.15 250.18 79.87 250.18 79.95 253.97 109.23 253.97" class="color65b69b svgShape"/><polygon fill="#411815" points="129.99 242.56 129.91 238.77 79.48 238.77 79.56 242.56 129.99 242.56" class="color411815 svgShape"/><polygon fill="#411815" points="121.52 231.16 121.44 227.37 78.94 227.37 79.02 231.16 121.52 231.16" class="color411815 svgShape"/><polygon fill="#65b69b" points="116.94 253.97 116.86 250.18 111.1 250.18 111.18 253.97 116.94 253.97" class="color65b69b svgShape"/><polygon fill="#411815" points="108.96 220.16 108.88 216.37 79.6 216.37 79.68 220.16 108.96 220.16" class="color411815 svgShape"/><polygon fill="#411815" points="116.67 220.16 116.59 216.37 110.83 216.37 110.91 220.16 116.67 220.16" class="color411815 svgShape"/><polygon fill="#411815" points="193.9 321.58 193.82 317.79 188.06 317.79 188.14 321.58 193.9 321.58" class="color411815 svgShape"/><polygon fill="#411815" points="193.63 287.77 193.55 283.99 187.79 283.99 187.87 287.77 193.63 287.77" class="color411815 svgShape"/><polygon fill="#411815" points="193.36 253.97 193.28 250.18 187.52 250.18 187.6 253.97 193.36 253.97" class="color411815 svgShape"/><polygon fill="#411815" points="180.42 207.8 180.34 204 141.05 204 141.13 207.8 180.42 207.8" class="color411815 svgShape"/><polygon fill="#411815" points="201.18 196.39 201.1 192.6 140.65 192.6 140.73 196.39 201.18 196.39" class="color411815 svgShape"/><polygon fill="#411815" points="192.72 184.98 192.64 181.19 140.12 181.19 140.2 184.98 192.72 184.98" class="color411815 svgShape"/><polygon fill="#411815" points="180.15 173.99 180.07 170.2 140.78 170.2 140.86 173.99 180.15 173.99" class="color411815 svgShape"/><polygon fill="#411815" points="200.91 162.58 200.83 158.79 140.38 158.79 140.46 162.58 200.91 162.58" class="color411815 svgShape"/><polygon fill="#411815" points="192.45 151.18 192.37 147.39 139.85 147.39 139.93 151.18 192.45 151.18" class="color411815 svgShape"/><polygon fill="#411815" points="179.88 140.19 179.8 136.39 140.51 136.39 140.59 140.19 179.88 140.19" class="color411815 svgShape"/><polygon fill="#411815" points="200.64 128.78 200.56 124.99 140.11 124.99 140.19 128.78 200.64 128.78" class="color411815 svgShape"/><polygon fill="#411815" points="192.18 117.37 192.1 113.58 139.58 113.58 139.66 117.37 192.18 117.37" class="color411815 svgShape"/><polygon fill="#411815" points="179.61 106.38 179.53 102.59 140.24 102.59 140.32 106.38 179.61 106.38" class="color411815 svgShape"/><polygon fill="#411815" points="180.42 321.58 180.34 317.79 141.05 317.79 141.13 321.58 180.42 321.58" class="color411815 svgShape"/><polygon fill="#411815" points="201.18 310.18 201.1 306.38 140.65 306.38 140.73 310.18 201.18 310.18" class="color411815 svgShape"/><polygon fill="#411815" points="192.72 298.77 192.64 294.98 140.12 294.98 140.2 298.77 192.72 298.77" class="color411815 svgShape"/><polygon fill="#411815" points="180.15 287.77 180.07 283.99 140.78 283.99 140.86 287.77 180.15 287.77" class="color411815 svgShape"/><polygon fill="#411815" points="200.91 276.37 200.83 272.58 140.38 272.58 140.46 276.37 200.91 276.37" class="color411815 svgShape"/><polygon fill="#411815" points="192.45 264.96 192.37 261.17 139.85 261.17 139.93 264.96 192.45 264.96" class="color411815 svgShape"/><polygon fill="#411815" points="179.88 253.97 179.8 250.18 140.51 250.18 140.59 253.97 179.88 253.97" class="color411815 svgShape"/><polygon fill="#411815" points="200.64 242.56 200.56 238.77 140.11 238.77 140.19 242.56 200.64 242.56" class="color411815 svgShape"/><polygon fill="#411815" points="192.18 231.16 192.1 227.37 139.58 227.37 139.66 231.16 192.18 231.16" class="color411815 svgShape"/><polygon fill="#411815" points="179.61 220.16 179.53 216.37 140.24 216.37 140.32 220.16 179.61 220.16" class="color411815 svgShape"/><polygon fill="#411815" points="193.09 220.16 193.01 216.37 187.25 216.37 187.33 220.16 193.09 220.16" class="color411815 svgShape"/><polygon fill="#411815" points="241.06 207.8 240.98 204 211.7 204 211.78 207.8 241.06 207.8" class="color411815 svgShape"/><polygon fill="#411815" points="261.82 196.39 261.74 192.6 211.31 192.6 211.39 196.39 261.82 196.39" class="color411815 svgShape"/><polygon fill="#411815" points="253.35 184.98 253.27 181.19 210.77 181.19 210.85 184.98 253.35 184.98" class="color411815 svgShape"/><polygon fill="#411815" points="248.77 207.8 248.69 204 242.93 204 243.01 207.8 248.77 207.8" class="color411815 svgShape"/><polygon fill="#411815" points="240.79 173.99 240.71 170.2 211.43 170.2 211.51 173.99 240.79 173.99" class="color411815 svgShape"/><polygon fill="#f8bc27" points="261.55 162.58 261.47 158.79 211.03 158.79 211.11 162.58 261.55 162.58" class="colorf8bc27 svgShape"/><polygon fill="#411815" points="253.08 151.18 253 147.39 210.5 147.39 210.58 151.18 253.08 151.18" class="color411815 svgShape"/><polygon fill="#411815" points="248.5 173.99 248.42 170.2 242.66 170.2 242.74 173.99 248.5 173.99" class="color411815 svgShape"/><polygon fill="#411815" points="240.52 140.19 240.44 136.39 211.16 136.39 211.24 140.19 240.52 140.19" class="color411815 svgShape"/><polygon fill="#411815" points="261.27 128.78 261.19 124.99 210.76 124.99 210.84 128.78 261.27 128.78" class="color411815 svgShape"/><polygon fill="#411815" points="252.81 117.37 252.73 113.58 210.23 113.58 210.31 117.37 252.81 117.37" class="color411815 svgShape"/><polygon fill="#411815" points="248.23 140.19 248.15 136.39 242.39 136.39 242.47 140.19 248.23 140.19" class="color411815 svgShape"/><polygon fill="#411815" points="240.25 106.38 240.17 102.59 210.89 102.59 210.97 106.38 240.25 106.38" class="color411815 svgShape"/><polygon fill="#411815" points="247.96 106.38 247.88 102.59 242.12 102.59 242.2 106.38 247.96 106.38" class="color411815 svgShape"/><polygon fill="#411815" points="241.06 321.58 240.98 317.79 211.7 317.79 211.78 321.58 241.06 321.58" class="color411815 svgShape"/><polygon fill="#411815" points="261.82 310.18 261.74 306.38 211.31 306.38 211.39 310.18 261.82 310.18" class="color411815 svgShape"/><polygon fill="#411815" points="253.35 298.77 253.27 294.98 210.77 294.98 210.85 298.77 253.35 298.77" class="color411815 svgShape"/><polygon fill="#411815" points="248.77 321.58 248.69 317.79 242.93 317.79 243.01 321.58 248.77 321.58" class="color411815 svgShape"/><polygon fill="#411815" points="240.79 287.77 240.71 283.99 211.43 283.99 211.51 287.77 240.79 287.77" class="color411815 svgShape"/><polygon fill="#f8bc27" points="261.55 276.37 261.47 272.58 211.03 272.58 211.11 276.37 261.55 276.37" class="colorf8bc27 svgShape"/><polygon fill="#411815" points="253.08 264.96 253 261.17 210.5 261.17 210.58 264.96 253.08 264.96" class="color411815 svgShape"/><polygon fill="#411815" points="248.5 287.77 248.42 283.99 242.66 283.99 242.74 287.77 248.5 287.77" class="color411815 svgShape"/><polygon fill="#411815" points="240.52 253.97 240.44 250.18 211.16 250.18 211.24 253.97 240.52 253.97" class="color411815 svgShape"/><polygon fill="#411815" points="261.27 242.56 261.19 238.77 210.76 238.77 210.84 242.56 261.27 242.56" class="color411815 svgShape"/><polygon fill="#411815" points="252.81 231.16 252.73 227.37 210.23 227.37 210.31 231.16 252.81 231.16" class="color411815 svgShape"/><polygon fill="#411815" points="248.23 253.97 248.15 250.18 242.39 250.18 242.47 253.97 248.23 253.97" class="color411815 svgShape"/><polygon fill="#411815" points="240.25 220.16 240.17 216.37 210.89 216.37 210.97 220.16 240.25 220.16" class="color411815 svgShape"/><polygon fill="#411815" points="247.96 220.16 247.88 216.37 242.12 216.37 242.2 220.16 247.96 220.16" class="color411815 svgShape"/><polygon fill="#411815" points="301.56 207.8 301.48 204 272.2 204 272.27 207.8 301.56 207.8" class="color411815 svgShape"/><polygon fill="#411815" points="322.31 196.39 322.23 192.6 271.8 192.6 271.88 196.39 322.31 196.39" class="color411815 svgShape"/><polygon fill="#411815" points="313.85 184.98 313.77 181.19 271.27 181.19 271.35 184.98 313.85 184.98" class="color411815 svgShape"/><polygon fill="#411815" points="309.27 207.8 309.19 204 303.43 204 303.51 207.8 309.27 207.8" class="color411815 svgShape"/><polygon fill="#f8bc27" points="301.29 173.99 301.21 170.2 271.93 170.2 272 173.99 301.29 173.99" class="colorf8bc27 svgShape"/><polygon fill="#411815" points="322.04 162.58 321.96 158.79 271.53 158.79 271.61 162.58 322.04 162.58" class="color411815 svgShape"/><polygon fill="#411815" points="313.58 151.18 313.5 147.39 271 147.39 271.08 151.18 313.58 151.18" class="color411815 svgShape"/><polygon fill="#411815" points="309 173.99 308.92 170.2 303.16 170.2 303.24 173.99 309 173.99" class="color411815 svgShape"/><polygon fill="#65b69b" points="301.02 140.19 300.94 136.39 271.65 136.39 271.73 140.19 301.02 140.19" class="color65b69b svgShape"/><polygon fill="#411815" points="321.77 128.78 321.69 124.99 271.26 124.99 271.34 128.78 321.77 128.78" class="color411815 svgShape"/><polygon fill="#411815" points="313.31 117.37 313.23 113.58 270.73 113.58 270.81 117.37 313.31 117.37" class="color411815 svgShape"/><polygon fill="#65b69b" points="308.73 140.19 308.65 136.39 302.89 136.39 302.97 140.19 308.73 140.19" class="color65b69b svgShape"/><polygon fill="#411815" points="300.75 106.38 300.67 102.59 271.38 102.59 271.46 106.38 300.75 106.38" class="color411815 svgShape"/><polygon fill="#411815" points="308.46 106.38 308.38 102.59 302.62 102.59 302.7 106.38 308.46 106.38" class="color411815 svgShape"/><polygon fill="#411815" points="193.09 71.58 193.01 67.79 187.25 67.79 187.33 71.58 193.09 71.58" class="color411815 svgShape"/><polygon fill="#411815" points="129.99 93.98 129.91 90.19 79.48 90.19 79.56 93.98 129.99 93.98" class="color411815 svgShape"/><polygon fill="#411815" points="121.52 82.57 121.44 78.78 78.94 78.78 79.02 82.57 121.52 82.57" class="color411815 svgShape"/><polygon fill="#411815" points="108.96 71.58 108.88 67.79 79.6 67.79 79.68 71.58 108.96 71.58" class="color411815 svgShape"/><polygon fill="#411815" points="116.67 71.58 116.59 67.79 110.83 67.79 110.91 71.58 116.67 71.58" class="color411815 svgShape"/><polygon fill="#411815" points="200.64 93.98 200.56 90.19 140.11 90.19 140.19 93.98 200.64 93.98" class="color411815 svgShape"/><polygon fill="#411815" points="192.18 82.57 192.1 78.78 139.58 78.78 139.66 82.57 192.18 82.57" class="color411815 svgShape"/><polygon fill="#411815" points="179.61 71.58 179.53 67.79 140.24 67.79 140.32 71.58 179.61 71.58" class="color411815 svgShape"/><polygon fill="#411815" points="261.27 93.98 261.19 90.19 210.76 90.19 210.84 93.98 261.27 93.98" class="color411815 svgShape"/><polygon fill="#411815" points="252.81 82.57 252.73 78.78 210.23 78.78 210.31 82.57 252.81 82.57" class="color411815 svgShape"/><polygon fill="#411815" points="240.25 71.58 240.17 67.79 210.89 67.79 210.97 71.58 240.25 71.58" class="color411815 svgShape"/><polygon fill="#411815" points="247.96 71.58 247.88 67.79 242.12 67.79 242.2 71.58 247.96 71.58" class="color411815 svgShape"/><polygon fill="#411815" points="321.77 93.98 321.69 90.19 271.26 90.19 271.34 93.98 321.77 93.98" class="color411815 svgShape"/><polygon fill="#411815" points="313.31 82.57 313.23 78.78 270.73 78.78 270.81 82.57 313.31 82.57" class="color411815 svgShape"/><polygon fill="#411815" points="300.75 71.58 300.67 67.79 271.38 67.79 271.46 71.58 300.75 71.58" class="color411815 svgShape"/><polygon fill="#411815" points="308.46 71.58 308.38 67.79 302.62 67.79 302.7 71.58 308.46 71.58" class="color411815 svgShape"/><polygon fill="#411815" points="301.56 321.58 301.48 317.79 272.2 317.79 272.27 321.58 301.56 321.58" class="color411815 svgShape"/><polygon fill="#411815" points="322.31 310.18 322.23 306.38 271.8 306.38 271.88 310.18 322.31 310.18" class="color411815 svgShape"/><polygon fill="#411815" points="313.85 298.77 313.77 294.98 271.27 294.98 271.35 298.77 313.85 298.77" class="color411815 svgShape"/><polygon fill="#411815" points="309.27 321.58 309.19 317.79 303.43 317.79 303.51 321.58 309.27 321.58" class="color411815 svgShape"/><polygon fill="#f8bc27" points="301.29 287.77 301.21 283.99 271.93 283.99 272 287.77 301.29 287.77" class="colorf8bc27 svgShape"/><polygon fill="#411815" points="322.04 276.37 321.96 272.58 271.53 272.58 271.61 276.37 322.04 276.37" class="color411815 svgShape"/><polygon fill="#411815" points="313.58 264.96 313.5 261.17 271 261.17 271.08 264.96 313.58 264.96" class="color411815 svgShape"/><polygon fill="#411815" points="309 287.77 308.92 283.99 303.16 283.99 303.24 287.77 309 287.77" class="color411815 svgShape"/><polygon fill="#65b69b" points="301.02 253.97 300.94 250.18 271.65 250.18 271.73 253.97 301.02 253.97" class="color65b69b svgShape"/><polygon fill="#411815" points="321.77 242.56 321.69 238.77 271.26 238.77 271.34 242.56 321.77 242.56" class="color411815 svgShape"/><polygon fill="#411815" points="313.31 231.16 313.23 227.37 270.73 227.37 270.81 231.16 313.31 231.16" class="color411815 svgShape"/><polygon fill="#65b69b" points="308.73 253.97 308.65 250.18 302.89 250.18 302.97 253.97 308.73 253.97" class="color65b69b svgShape"/><polygon fill="#411815" points="300.75 220.16 300.67 216.37 271.38 216.37 271.46 220.16 300.75 220.16" class="color411815 svgShape"/><polygon fill="#411815" points="308.46 220.16 308.38 216.37 302.62 216.37 302.7 220.16 308.46 220.16" class="color411815 svgShape"/></g><rect width="86.32" height="61.07" x="244.63" y="73.95" fill="#e14705" rx="3.71" class="colore14705 svgShape"/><path fill="#ffffff" d="M279.83 115l-21.49-9.35v-5.17l21.49-9.31v6.1l-15 5.73 15 6zM281.82 119.06l7.76-32.42h4.51l-7.84 32.42zM296.08 115v-6l15-5.91-15-5.83v-6l21.52 9.3v5.13z" class="colorfff svgShape"/><path fill="#f8bc27" d="M261.89,265.93l69.58.16a6.36,6.36,0,0,1,6.16,6.57l-.23,30.42a6.45,6.45,0,0,1-6.26,6.54l-69.58-.16a6.36,6.36,0,0,1-6.16-6.57l.23-30.42A6.45,6.45,0,0,1,261.89,265.93Z" class="colorf8bc27 svgShape"/><path fill="#ffffff" d="M270.2 294.69V280.26h2.91v5.68h5.7v-5.68h2.92v14.43h-2.92v-6.31h-5.7v6.31zM288 294.69v-12H283.7v-2.44h11.47v2.44H290.9v12zM297 294.69V280.26h4.36L304 290.1l2.59-9.84h4.37v14.43h-2.71V283.33l-2.86 11.36h-2.8l-2.86-11.36v11.36zM313.91 294.69V280.38h2.91v11.88h7.24v2.43z" class="colorfff svgShape"/><path fill="#65b69b" d="M158.16,107.66l-53.49.17a6.81,6.81,0,0,0-6.59,7l.25,32.56a6.91,6.91,0,0,0,6.7,7l53.48-.17a6.82,6.82,0,0,0,6.59-7l-.24-32.56A6.9,6.9,0,0,0,158.16,107.66Z" class="color65b69b svgShape"/><path fill="#ffffff" d="M111.78 138.44V123h5a18.64 18.64 0 013.71.23 4.09 4.09 0 012.22 1.51 4.79 4.79 0 01.89 3 5.09 5.09 0 01-.51 2.39 4.26 4.26 0 01-1.31 1.52 4.5 4.5 0 01-1.62.73 17.52 17.52 0 01-3.23.22h-2v5.83zm3.11-12.83V130h1.71a8.07 8.07 0 002.46-.24 2 2 0 001.33-2 2 2 0 00-.49-1.39 2.18 2.18 0 00-1.26-.68 14.76 14.76 0 00-2.24-.11zM126.17 138.44V123h3.12v6.08h6.11V123h3.12v15.44H135.4v-6.75h-6.11v6.75zM141.74 138.44V123h5a18.5 18.5 0 013.71.23 4 4 0 012.22 1.51 4.79 4.79 0 01.9 3 5 5 0 01-.52 2.39 4.16 4.16 0 01-1.31 1.52 4.53 4.53 0 01-1.61.73 17.72 17.72 0 01-3.24.22h-2v5.83zm3.12-12.83V130h1.71a8.12 8.12 0 002.46-.24 2 2 0 001-.76 2.18 2.18 0 00-.14-2.59 2.15 2.15 0 00-1.25-.68 14.76 14.76 0 00-2.24-.11z" class="colorfff svgShape"/><path fill="#65b69b" d="M261.62,242.71l8.78,2,1.73-5.43a22.41,22.41,0,0,0,7.78-1.34l3.44,4.54,7.6-4.8-2.61-5a22.54,22.54,0,0,0,4.55-6.45l5.65.77,2-8.77-5.42-1.73a22.89,22.89,0,0,0-1.34-7.78l4.53-3.44-4.79-7.6-5.06,2.61a22.77,22.77,0,0,0-6.45-4.56l.78-5.64-8.78-2-1.73,5.42a22.93,22.93,0,0,0-7.78,1.34L261,190.28l-7.6,4.79,2.61,5.06a22.83,22.83,0,0,0-4.55,6.44l-5.65-.77-2,8.78,5.42,1.73a22.79,22.79,0,0,0,1.34,7.77l-4.53,3.45,4.79,7.6,5.06-2.61a22.88,22.88,0,0,0,6.45,4.55Zm-5.26-29.92a16.24,16.24,0,1,1,12.25,19.42A16.23,16.23,0,0,1,256.36,212.79Z" class="color65b69b svgShape"/><path fill="#e14705" d="M119.41,323.21l8.78,2,1.73-5.43a22.37,22.37,0,0,0,7.78-1.34l3.44,4.54,7.6-4.8-2.61-5.06a22.36,22.36,0,0,0,4.55-6.44l5.65.77,2-8.77-5.42-1.73a22.85,22.85,0,0,0-1.34-7.78l4.53-3.44-4.79-7.6-5.06,2.61a22.86,22.86,0,0,0-6.44-4.56l.77-5.64-8.78-2L130.05,274a22.93,22.93,0,0,0-7.78,1.34l-3.44-4.53-7.6,4.79,2.61,5.06a22.83,22.83,0,0,0-4.55,6.44l-5.64-.77-2,8.78,5.43,1.73a22.54,22.54,0,0,0,1.33,7.77L103.89,308l4.8,7.6,5-2.62a22.91,22.91,0,0,0,6.45,4.56Zm-5.26-29.92a16.23,16.23,0,1,1,12.25,19.42A16.23,16.23,0,0,1,114.15,293.29Z" class="colore14705 svgShape"/><path fill="#f8bc27" d="M195.47,139.92l8.78,2,1.73-5.42a22.89,22.89,0,0,0,7.78-1.34l3.44,4.54,7.6-4.8-2.61-5.06a22.55,22.55,0,0,0,4.55-6.44l5.65.77,2-8.77L229,113.64a22.83,22.83,0,0,0-1.34-7.77l4.53-3.44-4.79-7.61-5.06,2.62a22.77,22.77,0,0,0-6.45-4.56l.78-5.64-8.78-2-1.73,5.43A22.69,22.69,0,0,0,198.33,92l-3.44-4.54-7.6,4.8,2.61,5.06a22.49,22.49,0,0,0-4.55,6.44L179.7,103l-2,8.77,5.43,1.74a22.54,22.54,0,0,0,1.33,7.77L180,124.73l4.79,7.6,5.06-2.61a22.91,22.91,0,0,0,6.45,4.56ZM190.21,110a16.23,16.23,0,1,1,12.25,19.42A16.24,16.24,0,0,1,190.21,110Z" class="colorf8bc27 svgShape"/><path fill="#411815" d="M93.18 118.58l4.07.92.8-2.51a10.6 10.6 0 003.6-.62l1.6 2.1 3.52-2.22-1.21-2.35a10.39 10.39 0 002.11-3l2.62.36.91-4.07-2.51-.8a10.46 10.46 0 00-.62-3.61l2.1-1.59L108 97.69l-2.34 1.21a10.58 10.58 0 00-3-2.11l.36-2.62-4.07-.92-.8 2.52a10.4 10.4 0 00-3.6.62l-1.6-2.1-3.52 2.22 1.21 2.34a10.58 10.58 0 00-2.11 3l-2.61-.36L85 105.55l2.51.8a10.36 10.36 0 00.62 3.6l-2.1 1.6 2.22 3.52 2.35-1.21a10.53 10.53 0 003 2.11zm-2.43-13.86a7.52 7.52 0 115.67 9A7.51 7.51 0 0190.75 104.72zM248.46 320.48l4.06.92.8-2.51a10.46 10.46 0 003.61-.62l1.59 2.1 3.52-2.22-1.21-2.35a10.39 10.39 0 002.11-3l2.62.36.92-4.07-2.52-.8a10.4 10.4 0 00-.62-3.6l2.1-1.6-2.22-3.52-2.34 1.21a10.58 10.58 0 00-3-2.11l.36-2.61-4.06-.92-.81 2.51a10.4 10.4 0 00-3.6.62l-1.59-2.1-3.53 2.22 1.21 2.34a10.58 10.58 0 00-2.11 3l-2.61-.36-.92 4.07 2.51.8a10.6 10.6 0 00.62 3.6l-2.1 1.6 2.22 3.52 2.35-1.21a10.53 10.53 0 003 2.11zM246 306.62a7.52 7.52 0 115.67 9A7.52 7.52 0 01246 306.62zM306 148.6l4.07.92.8-2.52a10.36 10.36 0 003.6-.62l1.6 2.11 3.52-2.23-1.21-2.34a10.58 10.58 0 002.11-3l2.61.36.92-4.06-2.51-.81a10.64 10.64 0 00-.62-3.6l2.1-1.59-2.22-3.53-2.35 1.22a10.42 10.42 0 00-3-2.12l.36-2.61-4.07-.92-.8 2.51a10.6 10.6 0 00-3.6.62l-1.6-2.1-3.52 2.22 1.21 2.35a10.53 10.53 0 00-2.11 3l-2.62-.35-.91 4.06 2.51.8A10.46 10.46 0 00301 140l-2.1 1.59 2.22 3.52 2.34-1.21a10.58 10.58 0 003 2.11zm-2.44-13.87a7.53 7.53 0 115.68 9A7.52 7.52 0 01303.6 134.73z" class="color411815 svgShape"/><g clip-path="url(#b)" fill="#000000" class="color000 svgShape"><polygon fill="#411815" points="70.47 149.34 110.24 389.9 115.84 389.9 76.08 149.34 70.47 149.34" class="color411815 svgShape"/><polygon fill="#411815" points="139.94 149.34 179.71 389.9 185.31 389.9 145.54 149.34 139.94 149.34" class="color411815 svgShape"/><polygon fill="#411815" points="77.5 186.32 77.8 191.15 149.3 191.15 149 186.32 77.5 186.32" class="color411815 svgShape"/><polygon fill="#411815" points="84.13 226.69 84.43 231.51 155.93 231.51 155.63 226.69 84.13 226.69" class="color411815 svgShape"/><polygon fill="#411815" points="90.83 266.26 91.13 271.08 162.63 271.08 162.33 266.26 90.83 266.26" class="color411815 svgShape"/><polygon fill="#411815" points="97.39 307.41 97.69 312.24 169.19 312.24 168.89 307.41 97.39 307.41" class="color411815 svgShape"/><polygon fill="#411815" points="104.02 347.77 104.32 352.6 175.82 352.6 175.52 347.77 104.02 347.77" class="color411815 svgShape"/></g><g clip-path="url(#c)" fill="#000000" class="color000 svgShape"><path fill="#fa8161" d="M92.93,206.5l-7.66,10.41c.17.31.34.64.5,1s.27.63.39,1c1.25,3.49,2.11,9,3.1,15.29.46,2.9.94,5.95,1.5,9,.46,2.46,1,5,1.54,7.39a.31.31,0,0,0,0,.08v0c.57,2.39,1.22,4.74,2,7,2,5.9,4.63,11.05,8.45,14.31A16.57,16.57,0,0,0,105,273.6h0c8.52,7.15,17.5,5.83,22.33,1.78a.93.93,0,0,0,.18-.16,3.47,3.47,0,0,0,.29-.25c.28-.25.53-.52.78-.79a10.77,10.77,0,0,0,1.29-1.78c.12-.21.24-.43.35-.65s.22-.45.32-.68.16-.37.23-.56.09-.24.13-.37c2.09-6,.37-14.3-5.06-20-.73-1.16-1.94-2.91-3.47-5-2.59-3.6-6.11-8.3-9.8-13.17-4.16-5.49-8.55-11.2-12.11-15.82s-6.36-8.19-7.22-9.3l-.27-.35Z" class="colorfa8161 svgShape"/><polygon fill="#fa8161" points="146.08 266.74 127.49 270.6 113.62 240.07 139.01 228.85 158.4 260.44 146.08 266.74" class="colorfa8161 svgShape"/><path fill="#fa8161" d="M75.67,197s2.3-.84,3.87-1.29,2.67-.31,4.84,1.36,7.47,3.18,8.26,5.76S95.88,214,89.06,217s-18.37-.66-14.76-3.81c0,0-4.63-1-1.88-4.76,0,0-4.18-3.18-.29-5.44C72.13,203,67,198.21,75.67,197Z" class="colorfa8161 svgShape"/><path fill="#411815" d="M72.13 203a12.76 12.76 0 012.94-.72 12.18 12.18 0 013-.06 12 12 0 01-2.94.72A12.19 12.19 0 0172.13 203zM72.43 208.43a28.89 28.89 0 014-.71c1.33-.15 2.65-.27 4-.31a10.56 10.56 0 01-2 .63 19.42 19.42 0 01-2 .34A17.14 17.14 0 0172.43 208.43zM74.27 213.22c1 0 1.85 0 2.76.05.45 0 .9 0 1.36 0s.91 0 1.4 0a5.59 5.59 0 01-2.78.6 6.72 6.72 0 01-1.41-.18A4.36 4.36 0 0174.27 213.22z" class="color411815 svgShape"/><path fill="#6f8bef" d="M181.86,211.94c4,4.12.78,15.71-6.24,27.77s-27.63,29-45.8,38.74c0,0-24.71-19.67-19.53-41.2,0,0,31-18,41.52-22.85S177.46,207.39,181.86,211.94Z" class="color6f8bef svgShape"/><path fill="#411815" d="M121.23,240.93a19.59,19.59,0,0,0,9.3,20.66l.45-.73a18.74,18.74,0,0,1-8.92-19.72Z" class="color411815 svgShape"/><path fill="#411815" d="M119.68,269.12a62.89,62.89,0,0,0,9.58,9.85l.17.14.22-.06c.26-.08,26.74-8.12,40.63-26.07l-.68-.53c-13.07,16.89-37.45,24.91-40,25.71-1.28-1.05-9.41-7.88-14.26-17.29l-.76.39A50.61,50.61,0,0,0,119.68,269.12Z" class="color411815 svgShape"/><path fill="#fa8161" d="M286.7,103.42c-2.83,1.85-9.11,5-12.14,7.72l-.06.08c-2.38,1.56-8,10-8.62,11.89-.91,2.81.26,2-1.27,9.28,0,.22,0,.43,0,.65h0c-.36,1-.74,2-1.13,3.11a1.24,1.24,0,0,0-.12.32h0c-2.22,6.27-4.91,14.57-7.15,21.67-3,7.86-6,15.86-7.21,22.27-2.64,13.69,25.14,30.23,28.51,5.88,1.71-12.41.17-35.67-.68-46.15a19.49,19.49,0,0,0,1.27-2.7s5.71-6.58,8.38-8.85,1.13-4.82,0-6.94-.67-3.15-2.9-4.59a12.2,12.2,0,0,1-3.5-3.67,35.42,35.42,0,0,0,8.65-7.84C290.34,103.14,288,102.61,286.7,103.42Z" class="colorfa8161 svgShape"/><path fill="#fa8161" d="M223.09,191.07s22.69-12.15,27.39-13.55c10.38-3.11,29.22,7,24.6,16.18s-21.59,25.91-38.39,32.46S204.39,202.66,223.09,191.07Z" class="colorfa8161 svgShape"/><path fill="#6f8bef" d="M182.7,232.19c1.86,5.56,7.66,18.19,21.89,17.51s37.68-18.19,55.08-30c0,0-6.19-31.65-28.13-37.09,0,0-30.88,19.62-40.25,26.85S180.66,226.06,182.7,232.19Z" class="color6f8bef svgShape"/><path fill="#411815" d="M256,206.07a64.73,64.73,0,0,1,4.42,13.32l0,.22-.16.16c-.19.21-19.94,20.41-42.75,24.54l-.16-.86c21.46-3.89,40.21-22.2,42.13-24.12-.35-1.66-2.71-12.25-9-21.07l.72-.51A51.12,51.12,0,0,1,256,206.07Z" class="color411815 svgShape"/><path fill="url(#a)" d="M232.62,335.34c2.23,9.36,3.3,71.52-1.56,81.43-3.46,7.06-42.43,24.57-46,4.9-3.17-17.28-12.59-75-11.77-85.3C174,326.44,225.93,307.2,232.62,335.34Z"/><path fill="#411815" d="M171.72,315.89c.44-6.6,23.39-17.59,40.81-16l5,61.2a93.44,93.44,0,0,0-7.28,11.08c-6.91,15.16-13.19,25.71-28.79,29.9C177.14,372,171.19,323.75,171.72,315.89Z" class="color411815 svgShape"/><path fill="url(#d)" d="M214.82,327.46c-1.42,9.52-31.74,88-39.94,95.35-5.84,5.27-27.42,6.52-38.4-10.2s18.27-97.07,22.86-106.3C163.77,297.39,219.09,298.85,214.82,327.46Z"/><path fill="#fa8161" d="M195.23,173c-3.3-5.93-6.87-15.6-13.7-11.33-1.74,1.1-10.1,5.53-11.65,7.26-3.68,4.11.8,10.51,2.17,17.4a17.57,17.57,0,0,0,3.45,7l-1.95.57,1.77,16.27s11.33,6.69,18.83-1.67l-1.06-13.1a11.43,11.43,0,0,0,4.07-1.13C202.06,191.08,198.93,179.69,195.23,173Z" class="colorfa8161 svgShape"/><path fill="#ff7761" d="M193.74,203.57s-2.57-2-6.11-8.3l5.47.23Z" class="colorff7761 svgShape"/><path fill="#411815" d="M190,161.59c-.66.59-2.74,2.23-2.74,2.23s1.22,6.17,1,8.68,2.61,6.83-3.11,2,2.93,7.12-3.06,14.22c-1.66,2-3,3.57-4,4.87a6.26,6.26,0,0,1-6.86,2,3.6,3.6,0,0,0-.87-.15c-2.36-.1-10.72-5.57-13.87-15s.16-14,8.06-18.24,3.8-6.9,8.74-9.5,9.64-11,9.64-11S196.1,156.2,190,161.59Z" class="color411815 svgShape"/><path fill="#fa8161" d="M178.88,183.21c2.42,2.12,5.86,2.14,7.66.07s1.31-5.48-1.11-7.59-5.85-2.14-7.66-.06S176.46,181.1,178.88,183.21Z" class="colorfa8161 svgShape"/><path fill="#411815" d="M186,181.19a1.45,1.45,0,0,1-.26.47,1.22,1.22,0,0,1-1,.43,1.42,1.42,0,0,1-1.36-1,1.75,1.75,0,0,0-1.16-1.08,3.62,3.62,0,0,0-1.58-.09c-.8.09-1.71.19-2.12-1.3a1.72,1.72,0,0,1,.18-1.4c.72-1.26,2.86-1.83,2.95-1.85l.22.83a4.48,4.48,0,0,0-2.43,1.45.92.92,0,0,0-.1.74c.22.79.43.77,1.21.68a4.55,4.55,0,0,1,1.93.12,2.6,2.6,0,0,1,1.67,1.52c.2.43.27.54.59.54s.27-.06.31-.12a2,2,0,0,0,.13-1.32l.84-.17A3.48,3.48,0,0,1,186,181.19Z" class="color411815 svgShape"/><path fill="#6f8bef" d="M238.54,358.53c-59.32,23.66-100-13.43-100-13.43-3.88-9.15,2.42-32.12,3.4-67.4s6.29-55.8,19.93-64.12c5-3,7.24-3.73,10.69-4.41,2.83-.73,5.77,0,7.93.29,6.24.88,10.31-1.62,13-3.3a1.6,1.6,0,0,1,1.36-.18C205,209.35,218.75,219.8,223,232.07c5.81,17.06,5.71,28.92,9.74,72.64S238.54,358.53,238.54,358.53Z" class="color6f8bef svgShape"/><path fill="#411815" d="M169.23 412.23c5.09-5.75 13.71-3.43 13.8-3.4l.35.1 14.79-33.46-.79-.35-14.49 32.8c-1.75-.39-9.48-1.71-14.3 3.75zM200.22 326.08a27 27 0 0016.93-5.78l-.58-.63c-.14.13-14.45 12.73-34.91-.48l-.47.72C188.38 324.55 194.83 326.08 200.22 326.08zM230 285l.72 0a151.07 151.07 0 00-4.65-42.76l-.69.2A150 150 0 01230 285zM142.28 280.6l-.95 0c0-.21.62-21 2.06-29.4l.94.16C142.9 259.7 142.29 280.4 142.28 280.6z" class="color411815 svgShape"/><path fill="#411815" d="M210.13,249.24l-.27-.91a86.62,86.62,0,0,0,16-6.52l.47.83A88,88,0,0,1,210.13,249.24Z" class="color411815 svgShape"/></g><rect width="262" height="1.99" x="75.05" y="330.22" fill="#411815" class="color411815 svgShape"/></svg>